<svg width="20" height="13" viewBox="0 0 20 13" fill="none" xmlns="http://www.w3.org/2000/svg">
<path fill-rule="evenodd" clip-rule="evenodd" d="M17.3971 8.00613H11.9811C11.8068 8.00613 11.6637 8.07666 11.6028 8.17913C11.6004 8.18358 11.5989 8.18878 11.5957 8.19472L10.8954 9.54083L10.8641 9.59726C10.7992 9.69155 10.6656 9.75838 10.4991 9.75838L1.59143 9.75541L2.53097 8.22293C2.53332 8.21774 2.53566 8.20957 2.54035 8.20511C2.60054 8.10117 2.74202 8.0284 2.91711 8.0284L8.99441 8.00167C9.0077 8.00242 9.02177 8.00242 9.03584 8.00242C9.05069 8.00242 9.06398 8.00242 9.07727 8.00167C9.23203 7.99128 9.35397 7.92297 9.41259 7.82794H9.41337L9.42666 7.80195C9.42744 7.79898 9.42744 7.79749 9.42744 7.79749L10.1192 6.47069C10.1247 6.46326 10.127 6.45658 10.1309 6.45064C10.1927 6.34744 10.3334 6.27616 10.5077 6.27616L16.0191 6.27839C16.1989 6.27839 16.3646 6.34744 16.474 6.47588C16.4756 6.47885 16.4771 6.48108 16.4787 6.48108L17.3971 8.00613ZM20 12.3533L18.0295 9.05079L18.0052 9.02184C18.0052 9.02035 18.0045 9.01961 18.0045 9.01961C17.9083 8.91566 17.7449 8.84661 17.5706 8.84661L12.6893 8.84513C12.5165 8.84513 12.3782 8.91195 12.3148 9.01516L12.2969 9.05005L11.5926 10.4021C11.5887 10.408 11.5856 10.4132 11.5824 10.4199C11.5207 10.5239 11.3792 10.5959 11.2049 10.5959L1.33505 10.5951C1.19357 10.5951 1.05444 10.6338 0.954391 10.7904L0 12.3518L20 12.3533ZM13.9805 2.36702L8.08614 2.36479C7.93606 2.36479 7.81412 2.43607 7.76175 2.54001C7.75785 2.5467 7.7555 2.55264 7.75394 2.5608L6.93243 4.3873C6.93086 4.39249 6.92696 4.39992 6.92539 4.40437C6.87224 4.50981 6.75108 4.5796 6.60023 4.5796H4.79462L7.42017 0.204924C7.47098 0.0720203 7.60542 0 7.75785 0H12.3086C12.4579 0 12.5978 0.0712778 12.6799 0.17374L12.6814 0.174482C12.6853 0.180422 12.7018 0.201954 12.7025 0.204924L13.9805 2.36702ZM15.8549 5.43939L14.6238 3.39535C14.6191 3.38941 14.6152 3.38273 14.6098 3.37827C14.5253 3.27358 14.3776 3.2023 14.2205 3.2023H8.6841C8.52621 3.2023 8.40036 3.27284 8.34486 3.37827C8.34095 3.38347 8.33783 3.39015 8.33548 3.39535L7.49521 5.19288C7.48818 5.22184 7.47489 5.24783 7.45926 5.27159C7.4022 5.35549 7.2912 5.4134 7.1591 5.4186C7.15207 5.4186 7.14425 5.4186 7.138 5.4186C7.13097 5.4186 7.12393 5.4186 7.1169 5.4186H4.46711C4.3272 5.41711 4.19823 5.48691 4.12319 5.60867L3.20553 7.10922L8.5137 7.16045C8.62547 7.14783 8.71771 7.0966 8.77242 7.02383L8.81854 6.9236L9.41963 5.6406C9.41963 5.63911 9.41963 5.63837 9.42119 5.63837C9.42432 5.62798 9.42823 5.62055 9.43292 5.61164C9.43292 5.6109 9.4337 5.60941 9.43448 5.60941C9.48998 5.50547 9.61582 5.43864 9.77137 5.43864H15.8549V5.43939Z" fill="white"/>
</svg>
